<?xml version="1.0" encoding="UTF-8"?>
<svg width="659px" height="332px" viewBox="0 0 659 332" version="1.1" xmlns="http://www.w3.org/2000/svg" xmlns:xlink="http://www.w3.org/1999/xlink">
    <!-- Generator: Sketch 47.1 (45422) - http://www.bohemiancoding.com/sketch -->
    <title>Full Logo White</title>
    <desc>Created with Sketch.</desc>
    <defs></defs>
    <g id="Page-1" stroke="none" stroke-width="1" fill="none" fill-rule="evenodd">
        <g id="Full-Logo-[White]" transform="translate(-41.000000, -43.000000)" fill-rule="nonzero" fill="#FFFFFF">
            <g id="Full-Logo-White" transform="translate(41.000000, 43.000000)">
                <polygon id="Shape" points="34.027 267.021 34.021 267 34 267.003"></polygon>
                <path d="M33.861,267.225 C33.846,267.21 33.834,267.189 33.819,267.168 C33.819,267.168 33.819,267.165 33.813,267.162 L33.813,267.162 L33.813,267.162 C33.816,267.162 33.819,267.165 33.822,267.165 L33.936,267.213 C33.882,267.141 33.831,267.072 33.777,267 C33.549,267.06 33.234,267.093 33,267.18 C33.264,267.294 33.54,267.333 33.861,267.225 Z" id="Shape"></path>
                <path d="M74.9679967,300.34804 C73.4819821,299.263389 71.1365509,299.506047 70.406478,297.263654 C66.1381382,295.120664 61.4932648,293.609169 58.2223081,289.790963 C52.7352639,286.867375 47.8891892,283.019934 43.1638353,279 L43.1638353,279 C43.1092235,279.298206 43.0546118,279.599336 43,279.900465 C45.9691549,283.891163 50.3007293,286.189103 54.1781639,289.010365 C60.6166024,293.685183 67.0464179,298.447708 74.7006865,301 C74.7897899,300.903522 74.9105106,300.821661 74.9564995,300.710565 C74.999614,300.605316 75.0226084,300.386047 74.9679967,300.34804 Z" id="Shape"></path>
                <path d="M3.92412325,211.685806 C1.93614509,198.313548 1.48353623,184.891935 2.78384898,171.394839 C3.08392116,168.270968 3.24145905,165.132581 3.46651318,162 C1.36100676,172.52129 0.445786631,183.155806 1.34350255,193.889032 C1.96365171,201.280645 2.15869862,208.756452 3.79409197,216 C3.8541064,214.56 4.13167317,213.073548 3.92412325,211.685806 Z" id="Shape"></path>
                <path d="M5.003,216 C5.003,216.018 5,216.033 5,216.051 L5.015,216.042 C5.009,216.027 5.006,216.015 5.003,216 Z" id="Shape"></path>
                <polygon id="Shape" points="33.003 267.006 33 267 33 267"></polygon>
                <path d="M40.3739871,275.074296 C37.9240948,272.559671 35.5775977,270.010322 33.595856,267.116622 C33.2885424,267.220795 33.0243102,267.183177 32.7715663,267.073216 C32.0334393,266.760697 31.3929634,265.834713 30,266.025697 C34.5350292,270.710597 38.702431,275.013529 42.8698328,279.31646 C42.8698328,279.31646 42.8698328,279.31646 42.8698328,279.319354 C47.5915479,283.298191 52.4338907,287.1063 57.9167094,290 C57.9425582,289.722205 57.9712791,289.44441 58,289.166614 C52.3620884,284.18077 45.6844805,280.528921 40.3739871,275.074296 Z" id="Shape"></path>
                <path d="M33.093,267.051 C33.099,267.051 33.105,267.051 33.114,267.048 L33,267 C33.033,267.021 33.057,267.036 33.093,267.051 Z" id="Shape"></path>
                <path d="M10,141 C13.9701493,131.316915 17.7970149,121.590369 22,112 C16.5910448,121.123889 12.8328358,130.888101 10,141 Z" id="Shape"></path>
                <path d="M7.99177737,146 C6.18005806,151.146152 5.23543737,155.49675 5,160 C6.07095294,155.675823 8.14682149,151.577689 7.99177737,146 Z" id="Shape"></path>
                <path d="M38,82 C39.6684521,79.3333333 41.334226,76.6666667 43,74 C39.9737547,75.7272064 38.2383503,78.3967907 38,82 Z" id="Shape"></path>
                <path d="M23,257.464945 C24.5968444,259.310886 26.1964091,261.154059 27.7932535,263 C27.8639826,262.947417 27.9319913,262.897601 28,262.845018 C26.5364527,260.896679 25.0729053,258.948339 23.609358,257 C23.4053319,257.154982 23.2013058,257.312731 23,257.464945 Z" id="Shape"></path>
                <polygon id="Shape" points="5 216.012 5.015 216.03 5.015 216"></polygon>
                <path d="M7.51701113,224 C6.18801113,221.454418 7.24701113,218.313657 5.00001113,216 C4.99701113,218.875306 5.60001113,221.599721 7.51701113,224 Z" id="Shape"></path>
                <path d="M33.1211268,267.066735 C33.1124748,267.063834 33.1067069,267.058031 33.095171,267.052228 C33.0634474,267.03772 33.0374916,267.020311 33.0086519,267.002902 C33.0057679,267.002902 33.0057679,267.002902 33,267 L33,267 C33.002884,267 33.002884,267.002902 33.002884,267.002902 C33.0144199,267.023212 33.0288397,267.040621 33.0432596,267.058031 C35.0331992,269.959566 37.3894031,272.512917 39.8494299,275.037252 C45.1818913,280.509547 51.8871227,284.168383 57.5483568,289.170629 C61.8512408,291.500562 66.128169,293.876919 70.4656606,296.137215 C71.9451375,296.906121 73.5716968,297.384875 75.1319249,298 L75.1319249,298 C75.4203219,297.767877 75.708719,297.538656 76,297.306533 C63.4489604,291.973512 52.3802817,284.342475 41.9720322,275.568233 C38.8198524,272.904624 37.008719,268.885998 33.1211268,267.066735 Z" id="Shape"></path>
                <path d="M71.1053372,295.800163 C66.7330153,293.593863 62.4217431,291.274274 58.0843067,289 C58.0552354,289.271893 58.0261642,289.543786 58,289.81568 C61.3112198,293.517393 66.006233,294.978819 70.3233195,297.054837 C71.8699121,297.68359 73.378712,298.422799 74.9718186,298.904277 C76.3003765,299.30362 76.0474563,298.371819 75.8090718,297.615616 L75.8090718,297.615616 C74.236315,297.018018 72.5937872,296.550701 71.1053372,295.800163 Z" id="Shape"></path>
                <g id="Shape">
                    <path d="M181.529251,300.873009 C181.607753,300.948522 181.683348,301.050174 181.756035,301.160539 C181.86652,301.0008 181.962467,300.861391 182.093304,300.678417 C181.90141,300.748122 181.721145,300.803304 181.529251,300.873009 Z"></path>
                    <path d="M93.3247577,242.939983 C93.2811454,242.861565 93.243348,242.780243 93.2084581,242.698922 C93.1793833,242.815096 93.1474009,242.922557 93.1212335,243.03873 C93.1939207,243.009687 93.254978,242.97193 93.3247577,242.939983 Z"></path>
                    <path d="M152.625903,310.143687 C152.550308,310.149496 152.471806,310.161113 152.396211,310.169826 C152.181057,310.17273 151.965903,310.193061 151.747841,310.19887 C151.925198,310.256957 152.099648,310.297617 152.274097,310.367322 C152.390396,310.277287 152.512511,310.222104 152.625903,310.143687 Z"></path>
                    <path d="M121.04185,311.340278 C120.49815,311.40127 119.960264,311.494209 119.422379,311.619096 C119.588106,311.665565 119.753833,311.697513 119.919559,311.746887 L119.916652,311.8892 C119.916652,311.8892 119.922467,311.73527 119.919559,311.741078 C120.291718,311.578435 120.666784,311.456452 121.04185,311.340278 Z"></path>
                    <path d="M99.4014097,304.334991 C99.462467,304.157826 99.5322467,304.000991 99.5787665,303.780261 C99.5031718,303.788974 99.4275771,303.783165 99.3490749,303.791878 C99.3723348,303.983565 99.3897797,304.169443 99.4014097,304.334991 Z"></path>
                    <polygon points="110.278326 285.654226 110.278326 285.654226 110.278326 285.65713"></polygon>
                    <path d="M182.616652,212.728957 C181.872335,211.297113 178.43859,211.726957 179.337004,209.612591 C181.436211,204.681009 178.953216,198.451183 183.78837,194.382191 C184.428018,193.1188 185.06185,191.852504 185.71022,190.589113 C190.257533,181.704713 194.008194,172.448557 203.108634,166.5992 C207.43207,163.819739 211.950308,161.14193 215.921938,157.706087 C219.919736,154.244104 222.984229,149.774313 227.48793,146.91353 C232.948194,143.442835 237.93163,139.492922 242.162026,134.541009 C250.625727,124.631374 259.135947,114.74207 264.817181,102.895235 C269.832599,92.4279652 272.93489,81.7486783 270.114626,69.7537217 C268.201498,61.6244522 267.288546,52.9607826 263.354714,45.7754261 C257.426344,34.9596348 250.826344,24.5388348 239.376652,17.7542783 C229.93022,12.1576 220.265727,7.46998261 209.900529,4.2810087 C199.134097,0.967147826 187.972247,0.153930435 176.691189,0.589582609 C163.979648,1.08041739 151.259383,1.5305913 139.074097,5.6170087 C132.049604,7.97243478 124.772159,9.65405217 118.128546,13.0811826 C114.267401,17.1066087 108.993216,18.8898783 104.399383,21.7535652 C103.829515,22.1078957 100.421938,22.2879652 103.934185,23.7575652 C103.934185,23.7575652 103.934185,23.7575652 103.934185,23.7575652 C106.670132,23.5165043 108.894361,21.8668348 111.092423,20.6063478 C127.467401,11.2165913 145.121674,6.67128696 163.860441,5.28591304 C176.723172,4.33328696 189.530661,4.35071304 202.108458,6.90653913 C213.683172,9.26196522 224.644405,13.5633043 234.835154,19.8425043 C252.951718,31.0010087 261.540441,47.9072174 265.03815,68.1040522 C265.485903,70.7034435 266.20696,73.2534609 266.637269,75.8557565 C268.248018,85.5853217 264.482819,94.0776348 260.284405,102.410209 C254.623524,113.64713 246.537797,123.190817 238.582907,132.810017 C238.00141,133.515774 237.518767,134.358035 236.030132,134.207009 C237.408282,132.3308 236.934361,129.9928 238.01304,128.174678 C239.716828,125.305183 238.725374,122.943948 236.655242,121.053217 C234.404846,118.999843 231.634009,118.363791 228.653833,119.699791 C225.909163,120.931235 223.807048,123.028174 221.751454,125.081548 C212.496916,134.320278 204.97815,144.900817 198.34326,156.108696 C196.392335,159.402226 194.069251,162.5244 192.891718,166.241965 C192.589339,167.197496 191.946784,167.853878 191.121057,168.327287 C181.793833,173.717757 172.818414,179.729757 162.964934,184.190835 C155.347313,187.638296 147.761674,191.155461 140.129515,194.56807 C137.358678,195.808226 134.500617,196.856696 131.67163,197.960348 C129.74978,198.70967 128.921145,197.899357 128.900793,195.959252 C128.877533,193.43247 127.749427,191.309391 125.946784,189.717809 C123.926079,187.931635 124.149956,186.107704 125.193744,184.057235 C127.604053,179.334765 130.151013,174.679096 132.40141,169.878209 C134.157533,166.140313 137.762819,164.818835 140.9,163.032661 C153.134714,156.070939 164.043612,147.354991 174.411718,137.959426 C184.648987,128.682939 192.161938,117.355983 197.61348,104.736591 C199.241674,100.975461 198.494449,96.8280522 196.578414,93.1976174 C195.825374,91.774487 194.179736,91.4346783 192.385815,92.0910609 C189.582996,93.1192 187.303524,94.8908522 184.872863,96.5376174 C175.94978,102.58447 169.131718,110.632417 162.400881,118.898191 C155.184493,127.759357 148.020441,136.62633 141.394273,145.955096 C138.007048,150.724035 135.06467,155.75727 131.822819,160.598817 C127.554626,166.982574 120.928458,169.735896 114.770396,173.244348 C100.890044,181.14127 86.9079295,188.840696 73.4956828,197.553739 C67.0585022,201.736 60.3625551,205.645252 53.10837,208.384052 C51.4336564,209.014296 49.3460793,209.57193 50.2154185,211.758904 C51.1225551,214.050435 52.9077533,212.450139 54.2132159,211.793757 C65.1948018,206.287113 75.7548018,199.920783 86.8032599,194.620348 C97.5231718,189.479652 107.19348,182.773513 117.387137,176.863165 C118.617004,176.1516 119.913744,175.445843 121.931542,175.588157 C121.347137,176.6192 120.739471,177.30753 120.538855,178.100417 C119.346784,182.747374 116.090396,183.792939 111.679736,184.72233 C104.573833,186.21807 98.9565639,190.618157 95.365815,197.170365 C93.6765639,200.251878 94.7843172,204.29473 97.9098678,206.655965 C98.8577093,207.373339 99.8927753,207.991965 100.936564,208.564122 C106.495683,211.60207 106.01304,211.363913 103.213128,217.312017 C99.3432599,225.53713 95.2698678,233.747722 93.2084581,242.710539 C93.243348,242.791861 93.2811454,242.870278 93.3247577,242.9516 C95.7205286,241.90313 96.6218502,240.044348 97.3836123,237.430435 C98.398326,233.939409 99.2822026,229.998209 102.806079,227.753148 C103.631806,227.227461 103.317797,226.414243 103.451542,225.653304 C104.326696,220.68687 106.693392,216.280974 109.001938,211.875078 C109.27815,211.349391 109.970132,210.9544 111.063348,211.273878 C108.821674,217.169704 106.620705,223.042296 104.358678,228.894557 C99.7735683,240.753009 95.3396476,252.660835 91.9466079,264.931704 C91.786696,265.506765 91.8332159,265.956939 92.2170044,266.383878 C94.432511,259.947843 96.5200881,253.462435 98.8896916,247.084487 C103.120088,235.696539 106.937621,224.143043 112.043172,213.092 C112.810749,211.433617 113.677181,210.446139 115.849075,210.356104 C118.433833,210.245739 121.021498,209.394765 123.542291,208.645443 C126.100881,207.884504 126.787048,208.587357 126.606784,211.247739 C125.833392,222.603739 123.109075,233.567652 120.364405,244.548991 C118.305903,252.79153 115.907225,260.923704 113.153833,268.954226 C113.999912,272.56433 113.255595,275.727165 110.508018,278.326557 C106.940529,286.61847 103.37304,294.910383 99.8055507,303.199391 C100.296916,303.257478 100.785374,303.312661 101.27674,303.370748 C101.86696,302.612713 102.451366,301.854678 103.041586,301.093739 C104.338326,298.822539 105.640881,296.548435 106.937621,294.27433 C107.021938,291.006939 108.02793,288.096783 110.281233,285.665843 L110.167841,285.767496 C111.842555,281.288991 113.517269,276.810487 115.191982,272.329078 C115.404229,272.061878 115.616476,271.791774 115.828722,271.52167 C115.223965,267.928991 117.212687,265.152435 118.762379,262.233565 C119.983524,261.507478 119.620088,260.078539 119.905022,259.07073 C123.100352,247.708922 127.258062,236.55913 128.060529,224.630974 C128.051806,224.253409 128.043084,223.875843 128.034361,223.495374 C125.923524,226.115096 127.470308,229.431861 126.225903,232.426243 C125.469956,231.386487 125.278062,230.329304 125.531013,229.173374 C126.897533,222.920313 127.080705,216.533652 127.64185,210.196365 C127.790132,208.540887 128.083789,207.045148 129.459031,205.958922 C129.874802,206.014104 130.287665,206.066383 130.700529,206.115757 C141.815859,203.397287 152.125815,198.689339 162.060705,193.162365 C169.896388,188.800035 177.554714,184.112417 186.216123,179.024 C185.053128,181.614678 184.47163,183.226591 183.640088,184.702 C179.659736,191.774087 177.0837,199.360243 175.23163,207.210696 C174.484405,210.402574 175.051366,213.065861 178.836916,213.91393 C179.79348,212.6912 181.482731,214.038817 182.616652,212.728957 Z M218.591013,138.883009 C221.745639,134.78207 225.176476,130.896052 228.499736,126.925809 C229.011454,126.3188 229.616211,125.787304 230.159912,125.200626 C231.258943,124.006939 232.66326,123.33313 234.04141,124.29447 C235.320705,125.191913 234.715947,126.586 234.323436,127.927809 C231.35489,137.994278 224.533921,145.040226 216.314449,150.973809 C212.764405,153.535443 209.095154,155.925722 205.47533,158.391513 C208.589251,150.851826 213.854714,145.046035 218.591013,138.883009 Z M191.103612,100.438157 C191.234449,104.469391 191.007665,107.736783 189.283524,111.0884 C180.659912,127.849391 167.529692,140.181252 151.861233,150.18673 C148.529251,152.312713 145.479295,154.88887 140.821498,157.302383 C155.879383,136.094835 170.54185,116.092591 191.103612,100.438157 Z M110.499295,200.960539 C109.691013,203.086522 108.109339,202.71767 106.53348,202.531791 C104.251101,202.255878 101.820441,201.855078 100.703965,199.639061 C99.8520705,197.94873 100.866784,196.223548 102.198414,195.006626 C105.893833,191.62887 110.028282,189.09047 115.822907,188.680957 C114.540705,193.310487 112.031542,196.935113 110.499295,200.960539 Z M125.155947,198.982678 C124.051101,201.349722 120.437093,201.213217 117.544141,201.765043 C118.393128,198.125896 120.341145,195.395809 122.056564,192.331722 C124.673304,193.981391 125.908987,197.362052 125.155947,198.982678 Z M148.535066,196.322296 C147.229604,196.775374 145.868899,197.06 144.13022,197.5276 C145.237974,195.63687 146.389339,194.620348 148.058238,194.512887 C149.035154,194.451896 150.049868,192.140035 150.831982,194.199217 C151.294273,195.416139 149.602115,195.950539 148.535066,196.322296 Z"></path>
                    <path d="M623.072159,148.653235 C622.176652,148.725843 621.487577,149.042417 621.342203,149.968904 C621.161938,151.142261 621.98185,151.714417 622.938414,151.894487 C624.246784,152.141357 625.590044,152.222678 626.921674,152.312713 C632.425551,152.693183 637.89163,153.605148 642.677357,156.341043 C657.345639,164.7288 657.159559,182.404661 649.280264,194.210835 C645.020793,200.594591 638.824934,204.948209 632.041762,207.983252 C620.542643,213.129757 608.822555,214.14047 597.489163,206.998678 C594.825903,205.319965 593.1163,203.150417 593.12793,199.891739 C593.148282,194.498365 593.956564,189.325722 597.148987,184.74847 C598.288722,183.116226 599.384846,181.402661 600.140793,179.575826 C601.242731,176.921252 599.120264,175.454557 597.567665,173.839739 C596.270925,172.492122 595.372511,173.537687 594.625286,174.426417 C589.961674,179.965009 583.498326,182.910017 577.305374,186.99353 C577.619383,179.436417 581.762555,174.722661 586.722731,170.543304 C592.904053,165.33 596.986167,166.076417 600.745551,173.096226 C601.263084,174.069183 601.832952,174.597774 602.838943,174.551304 C603.565815,174.519357 603.891454,173.921061 604.16185,173.250157 C605.298678,170.459078 603.042467,163.901061 600.527489,162.271722 C594.28511,158.22887 587.987489,158.911391 582.911013,163.578678 C577.22978,168.800696 570.972863,172.373043 563.660529,174.426417 C559.465022,175.605583 555.516652,177.502122 551.425815,178.939774 C545.43348,181.039617 539.510925,183.406661 533.088282,184.222783 C530.451189,184.559687 529.532423,183.592539 528.590396,181.568209 C527.723965,179.71233 527.965286,177.873878 528.346167,176.093513 C529.645815,170.000191 534.768811,166.149026 539.327753,167.856783 C540.673921,168.362139 541.671189,168.998191 542.778943,167.560539 C544.072775,165.878922 542.694626,164.993096 541.860176,163.877826 C538.051366,158.789409 530.157533,160.479739 526.072511,165.553635 C525.127577,166.726991 524.522819,168.031043 522.676564,168.614817 C510.034802,172.599583 497.477357,176.842835 484.885022,180.987339 C482.102555,181.902209 479.253216,182.398852 476.30793,182.349478 C473.935419,182.305913 472.885815,181.571113 473.635947,178.922348 C474.697181,175.161217 475.912511,171.56273 478.930485,168.861687 C481.128546,166.898348 480.8,164.81593 478.718238,163.218539 C476.680088,161.656 475.118767,162.814835 474.013921,164.818835 C473.217269,166.268104 471.978678,166.956435 470.338855,167.551826 C453.274802,173.764226 435.742643,178.33567 418.143612,182.692191 C416.090925,183.200452 414.032423,183.830696 411.866344,183.244017 C414.206872,172.852261 414.020793,173.8804 419.390925,166.271009 C420.13815,165.210922 420.702203,164.185687 419.847401,163.015235 C419.027489,161.894157 417.754009,161.002522 416.451454,161.603722 C414.000441,162.733513 411.322643,162.312383 408.77859,163.276626 C404.196388,165.019235 401.460441,162.867113 401.123172,158.080748 C401.062115,157.215252 401.245286,156.262626 400.076476,155.73113 C398.736123,155.121217 397.5237,155.548157 396.808458,156.396226 C395.375066,158.09527 393.72652,160.34033 394.703436,162.41113 C396.546784,166.326191 394.249868,167.967148 391.694185,169.791078 C390.281145,170.801791 388.783789,171.734087 387.533568,172.92487 C378.875066,181.176122 368.187137,185.852122 357.278238,190.118609 C356.344934,190.481652 355.033656,191.56207 353.992775,190.220261 C353.085639,189.046904 353.347313,187.760278 353.882291,186.430087 C356.04837,181.033809 359.482115,176.503026 363.459559,172.355617 C364.294009,171.484313 365.096476,170.755322 365.451189,169.483217 C365.846608,168.062991 365.916388,167.008713 364.68652,165.963148 C363.35489,164.824643 362.471013,165.849878 361.555154,166.453983 C358.540088,168.44927 356.126872,171.103843 354.353304,174.185357 C350.846872,180.269965 345.921586,184.792035 339.844934,188.12913 C338.498767,188.869739 336.652511,190.109896 335.408106,188.927826 C334.091013,187.684765 334.922555,185.81727 335.774449,184.208261 C338.440617,179.148887 341.365551,174.269583 345.235419,170.035043 C346.915947,168.193687 345.883789,166.851878 344.595771,165.693043 C343.310661,164.540017 341.955771,164.226348 340.481674,165.893443 C338.405727,168.243061 336.300705,170.534591 333.422291,172.134887 C315.619736,182.012574 296.886784,189.470939 277.133304,194.393809 C269.326696,196.336817 261.735242,199.21793 253.579736,199.662296 C249.645903,199.877217 248.581762,198.73 248.625374,194.759757 C248.648634,192.587304 249.15163,190.635583 249.805815,188.649009 C246.799471,191.614348 246.206344,196.139322 248.430573,199.191791 C248.820176,199.729096 250.082026,200.063096 248.910308,200.925687 C248.285198,201.38167 247.636828,200.975061 247.191982,200.417426 C245.892335,198.785183 244.156564,197.315583 245.418414,194.829461 C246.011542,193.664817 245.543436,192.491461 245.072423,191.373287 C243.374449,191.149652 243.682643,189.836887 243.630308,188.718713 C242.292863,191.039287 242.330661,193.5864 242.560352,196.107374 C243.034273,201.204504 247.540881,204.907548 252.588282,203.972348 C256.350573,203.278209 260.153568,202.793183 263.869339,201.672104 C271.100264,199.493843 278.421322,197.571165 285.672599,195.480035 C294.909692,192.813843 304.146784,189.886261 312.848899,185.654626 C319.329692,182.506313 325.72326,179.172122 333.003612,175.489409 C331.680705,179.079183 330.639824,181.765704 329.840264,184.504504 C328.770308,188.178504 329.409956,190.542643 332.462819,192.723809 C335.649427,194.997913 338.463877,194.155652 341.217269,192.189409 C343.642115,190.455513 345.936123,188.535739 348.436564,186.584017 C348.642996,194.556452 351.966256,196.90607 359.107048,194.324104 C361.709251,193.383096 364.340529,192.398522 366.739207,191.045096 C377.624846,184.911113 388.219736,178.344383 397.195154,169.500643 C397.951101,168.754226 399.02978,167.743513 399.963084,168.245965 C403.050837,169.907252 406.298502,167.766748 409.528722,169.041757 C408.351189,171.190974 407.068987,173.319861 405.990308,175.541687 C404.34467,178.939774 403.550925,182.404661 406.408987,185.613965 C408.912335,188.425374 412.203612,187.934539 415.271013,187.176504 C431.669251,183.130748 448.038414,178.971722 463.791189,172.753513 C465.628722,172.027426 467.562203,171.539496 469.702115,170.865687 C469.49859,171.603391 469.466608,171.870591 469.356123,172.09713 C467.445903,175.965722 466.439912,179.87207 469.382291,183.67967 C472.18511,187.3072 476.197445,186.958678 480.000441,186.3052 C486.420176,185.198643 492.473568,182.715426 498.58511,180.569113 C506.66793,177.728661 514.398943,173.929774 523.034185,171.281009 C521.882819,173.619009 521.647313,175.83793 521.504846,178.082991 C521.086167,184.641009 526.028899,189.39833 532.451542,188.611252 C538.525286,187.864835 544.238502,185.956678 549.803436,183.45313 C557.438502,180.014383 564.980529,176.311339 573.374449,174.040139 C572.071894,178.916539 570.740264,183.270157 572.717357,188.004243 C574.482203,192.224261 576.642467,193.104278 580.33207,190.240591 C582.977885,188.190122 585.585903,186.096087 588.816123,183.540261 C586.324405,189.552261 585.431806,194.954348 587.499031,200.495843 C591.470661,211.143183 601.190396,215.572313 613.445463,215.938261 C625.552247,216.2984 635.789515,211.244835 644.982996,203.647061 C652.495947,197.44047 657.595683,189.781704 658.119031,180.028904 C659.305286,158.130122 641.903965,147.087791 623.072159,148.653235 Z"></path>
                    <path d="M42.9001762,279.360504 C42.9001762,279.3576 42.9001762,279.3576 42.9001762,279.360504 C38.6785022,275.038835 34.4597357,270.72007 29.8688106,266.01793 C31.2789427,265.826243 31.9273128,266.755635 32.6745374,267.069304 C32.9042291,266.985078 33.2066079,266.950226 33.4275771,266.895043 C28.8831718,260.482243 23.1321586,255.019165 19.204141,248.080678 C13.1943612,237.465287 7.93180617,226.388104 6.13788546,214.433809 C3.00942731,193.595113 2.34361233,172.785461 8.13823789,151.917722 C13.133304,133.931096 20.0095154,116.708313 28.5662555,100.412017 C35.2302203,87.7229217 43.3886344,75.6698783 53.6404405,64.9354087 C62.36,55.8041391 71.201674,46.9807304 80.8865198,38.9560174 C88.0040529,33.0601913 96.1537445,28.6833391 103.92837,23.7575652 C100.416123,22.2879652 103.8237,22.1078957 104.393568,21.7535652 C108.987401,18.8898783 114.261586,17.1066087 118.122731,13.0811826 C105.489692,20.2607304 92.0454626,25.9329217 80.7731278,35.5811652 C70.9574449,43.9805391 60.118326,51.1455652 52.4890749,61.914887 C48.51163,67.526087 41.9552423,71.2146087 38.6610573,77.0349217 C34.6952423,84.043113 29.7408811,90.522713 26.2431718,97.5454261 C21.6173568,106.836435 17.0409692,116.301704 13.2699559,126.074835 C6.79497797,142.844539 2.3,160.076035 0.651453744,177.961009 C-0.0870484581,185.965391 1.25621145,193.9872 1.6661674,201.997391 C2.70123348,222.144852 9.74898678,240.143096 20.905022,256.538139 C26.9525991,265.422539 34.1835242,273.522765 42.7373568,280.255043 C42.7896916,279.952991 42.8449339,279.656748 42.9001762,279.360504 L42.9001762,279.360504 Z M91.8419383,28.9389217 C90.4521586,30.9952 89.0449339,31.9013565 87.3614978,32.4677043 C88.6640529,31.4424696 89.9666079,30.4143304 91.8419383,28.9389217 Z M43.6793833,73.9853565 C41.8709251,76.6428348 40.062467,79.2945043 38.2511013,81.9490783 C38.5098678,78.3622087 40.3939207,75.7047304 43.6793833,73.9853565 Z M21.2626432,112.314035 C17.1688987,121.927426 13.4414978,131.677322 9.57453744,141.383652 C12.3337445,131.250383 15.9942731,121.46273 21.2626432,112.314035 Z M7.91436123,145.629809 C8.07136564,151.14807 5.97215859,155.202539 4.88475771,159.480643 C5.12026432,155.02247 6.07973568,150.72113 7.91436123,145.629809 Z M4.72484581,215.714626 C4.71903084,215.708817 4.71903084,215.700104 4.71030837,215.6972 C4.71030837,215.679774 4.71321586,215.665252 4.71321586,215.647826 C2.81171806,208.398574 2.58493392,200.922783 1.86387665,193.528313 C0.820088106,182.788035 1.88422907,172.152313 4.3323348,161.626957 C4.07066079,164.760748 3.88748899,167.900348 3.53859031,171.025426 C2.02669604,184.527739 2.55295154,197.951635 4.86440529,211.331965 C5.10572687,212.720243 4.78299559,214.20727 4.71321586,215.65073 C4.71612335,215.665252 4.71903084,215.67687 4.72193833,215.688487 C4.72484581,215.6972 4.72484581,215.705913 4.72484581,215.714626 C6.90546256,218.119426 5.87621145,221.383913 7.16422907,224.029774 C5.3092511,221.534939 4.72484581,218.7032 4.72484581,215.714626 Z M27.8335683,263.534713 C26.1268722,261.597513 24.4201762,259.663217 22.7105727,257.726017 C22.9286344,257.566278 23.1437885,257.403635 23.3618502,257.240991 C24.9260793,259.285652 26.4903084,261.330313 28.0545374,263.374974 C27.9789427,263.427252 27.9062555,263.482435 27.8335683,263.534713 Z"></path>
                    <path d="M104.399383,308.424313 C98.1599119,307.910243 92.4350661,305.18887 86.2973568,304.204296 C85.0413216,304.0068 84.4162115,302.952522 84.0818502,301.387078 C88.0185903,302.679513 91.6994714,304.02713 95.4675771,305.05527 C96.7643172,305.4096 98.6512775,306.423217 99.4014097,304.334991 C99.3897797,304.169443 99.3723348,303.980661 99.3490749,303.791878 C94.1533921,304.401791 89.7863436,301.529391 85.0267841,300.315374 C84.3551542,300.001704 83.9684581,299.470209 84.1196476,298.741217 C86.0066079,289.769687 87.1696035,280.623896 90.4230837,271.971843 C90.5451982,271.646557 90.9522467,271.425826 91.2226432,271.155722 C92.2867841,269.715165 92.2606167,268.04807 92.2111894,266.372261 C91.8303084,265.945322 91.7837885,265.495148 91.940793,264.920087 C95.3338326,252.649217 99.7677533,240.741391 104.352863,228.882939 C106.61489,223.030678 108.815859,217.158087 111.057533,211.262261 C109.964317,210.942783 109.272335,211.33487 108.996123,211.863461 C106.687577,216.269357 104.320881,220.675252 103.445727,225.641687 C103.311982,226.402626 103.625991,227.215843 102.800264,227.74153 C99.2763877,229.986591 98.392511,233.927791 97.3777974,237.418817 C96.6189427,240.03273 95.7176211,241.894417 93.3189427,242.939983 C93.249163,242.97193 93.1881057,243.009687 93.1154185,243.041635 C89.6525991,253.828383 85.8844934,264.522191 83.5526872,275.648748 C82.1977974,282.131252 80.6248458,288.567287 79.2263436,295.038174 C78.9181498,296.4584 78.6303084,297.64047 76.8102203,297.387791 C76.5165639,297.620139 76.225815,297.849583 75.9350661,298.08193 C76.1734802,298.857391 76.4235242,299.812922 75.0977093,299.403409 C73.5044053,298.912574 71.9954185,298.151635 70.4486344,297.50687 C71.1871366,299.734504 73.5625551,299.493443 75.0628194,300.570957 C75.1209692,300.608713 75.0948018,300.823635 75.0482819,300.931096 C74.9988546,301.044365 74.8796476,301.122783 74.7895154,301.218626 C78.2523348,302.394887 78.8570925,304.802591 78.1825551,308.157113 C76.9439648,314.323043 76.362467,320.544157 77.4673128,326.837878 C77.7289868,328.319096 77.9586784,329.655096 79.3019383,330.529304 C82.5757709,330.976574 84.8377974,329.167165 86.8352423,326.988904 C87.6348018,326.1176 88.1581498,325.013948 89.5159471,324.9152 C89.5159471,324.9152 89.5159471,324.9152 89.5159471,324.9152 C92.8333921,321.720417 95.1361233,317.776313 97.3022026,313.817687 C99.0844934,310.5532 101.233128,309.272383 104.754097,310.744887 C105.036123,310.500922 105.31815,310.256957 105.603084,310.012991 C106.379383,308.578243 105.434449,308.508539 104.399383,308.424313 Z M85.8118062,324.235583 C85.8030837,324.595722 85.7943612,324.952957 85.7885463,325.313096 C85.3611454,326.254104 84.669163,326.991809 83.6253744,326.460313 C81.4040529,325.333426 78.7698678,316.152783 79.8543612,313.808974 C80.4765639,312.464261 81.6540969,311.921148 82.9275771,311.462261 C83.7067841,309.699322 82.2210573,307.2132 84.674978,305.981757 C84.674978,305.981757 84.674978,305.981757 84.674978,305.981757 C88.8530396,305.244052 92.0076652,308.511443 96.6625551,308.656661 C92.8275771,314.157496 89.3211454,319.196539 85.8118062,324.235583 Z"></path>
                    <path d="M244.854361,182.181026 C247.261762,182.87807 247.354802,184.153078 245.668458,186.162887 C244.470573,187.591826 244.50837,189.549357 245.081145,191.376191 C245.552159,192.494365 246.017357,193.667722 245.427137,194.832365 C244.165286,197.318487 245.901057,198.790991 247.200705,200.42033 C247.645551,200.975061 248.293921,201.384574 248.919031,200.928591 C250.090749,200.068904 248.828899,199.732 248.439295,199.194696 C246.215066,196.142226 246.808194,191.617252 249.814537,188.651913 C251.588106,186.967391 251.387489,183.377617 254.95207,183.41247 C259.636035,183.458939 264.122291,182.259443 268.556211,180.975722 C271.693392,180.069565 274.249075,178.082991 276.07207,175.364522 C278.020088,172.468887 278.127665,167.412417 276.17674,167.034852 C272.455154,166.308765 268.995242,164.269913 264.683436,166.079322 C257.734537,168.992383 252.42837,173.894922 246.904141,178.637722 C247.535066,180.554591 245.066608,180.479078 244.854361,182.181026 Z M268.910925,171.246157 C270.009956,170.839548 271.582907,170.281913 272.257445,171.32167 C273.100617,172.622817 271.803877,173.778748 270.824053,174.632626 C266.872775,178.085896 261.799207,178.771322 256.042379,180.612678 C260.133216,176.119652 264.075771,173.041043 268.910925,171.246157 Z"></path>
                    <path d="M245.081145,191.376191 C244.50837,189.549357 244.470573,187.588922 245.668458,186.162887 C247.354802,184.153078 247.261762,182.880974 244.854361,182.181026 C245.066608,180.479078 247.535066,180.554591 246.907048,178.637722 C244.653744,178.152696 244.168194,180.409374 242.819119,181.31553 C229.194626,190.438087 215.56141,199.554835 200.24185,205.691722 C194.874626,207.838035 189.507401,210.216696 183.642996,210.663965 C182.049692,210.785948 179.808018,211.639826 180.697709,207.724765 C181.709515,203.286922 182.134009,198.698052 183.785463,194.382191 C178.950308,198.451183 181.433304,204.681009 179.334097,209.612591 C178.435683,211.726957 181.869427,211.297113 182.613744,212.728957 C181.479824,214.041722 179.790573,212.694104 178.828194,213.902313 C181.581586,214.599357 184.358238,214.866557 187.097093,213.966209 C197.267489,210.626209 207.141322,206.603687 216.590661,201.529791 C226.409251,196.2584 235.169515,189.314104 245.002643,183.517026 C244.717709,185.564591 243.17674,186.88607 243.636123,188.721617 C243.694273,189.839791 243.383172,191.152557 245.081145,191.376191 Z"></path>
                    <path d="M122.626432,308.311043 C115.631013,309.440835 108.839119,308.16873 102.117004,306.446452 C100.503348,306.03113 101.445374,304.430835 101.273833,303.35913 C100.785374,303.301043 100.294009,303.245861 99.8026432,303.187774 C99.5845815,303.332991 99.5148018,303.527583 99.5787665,303.780261 C99.5322467,304.000991 99.462467,304.157826 99.4014097,304.334991 C98.6512775,306.423217 96.7643172,305.4096 95.4675771,305.05527 C91.7023789,304.02713 88.0214978,302.679513 84.0818502,301.387078 C84.4162115,302.952522 85.0413216,304.003896 86.2973568,304.204296 C92.4321586,305.18887 98.1599119,307.910243 104.399383,308.424313 C105.434449,308.508539 106.376476,308.578243 105.617621,310.001374 C110.176564,310.872678 114.907048,310.344087 119.419471,311.616191 C119.960264,311.491304 120.49815,311.398365 121.038943,311.337374 C124.661674,310.169826 128.333833,310.904626 132.000176,311.436122 C135.846784,311.857252 139.675947,311.8892 143.45859,310.927861 C146.177093,309.983948 148.910132,309.269478 151.747841,310.195965 C151.962996,310.193061 152.17815,310.169826 152.396211,310.166922 C152.471806,310.161113 152.550308,310.149496 152.625903,310.140783 C155.036211,308.537583 157.95533,309.391461 160.560441,308.647948 C167.076123,306.789165 173.647048,305.130783 180.194714,303.391078 C180.58141,302.842157 180.988458,302.255478 181.756035,301.157635 C181.686256,301.044365 181.607753,300.945617 181.529251,300.870104 C174.190749,303.510157 167.468634,305.36313 160.604053,306.623617 C156.449251,307.329374 152.291542,307.907339 148.072775,307.160922 C148.075683,307.160922 148.081498,307.160922 148.087313,307.160922 C148.084405,307.160922 148.07859,307.160922 148.072775,307.160922 C142.031013,307.953809 135.957269,308.180348 129.868987,308.165826 C127.479031,309.426313 125.039648,308.130974 122.626432,308.311043 Z"></path>
                    <path d="M181.529251,300.873009 C181.718238,300.803304 181.898502,300.748122 182.093304,300.681322 C181.962467,300.864296 181.86652,301.0008 181.756035,301.163443 C180.988458,302.261287 180.58141,302.847965 180.194714,303.396887 C180.433128,303.643757 180.674449,303.887722 180.912863,304.131687 C190.917533,299.423739 201.282731,295.421548 210.461674,289.087165 C209.976123,287.187722 211.639207,287.199339 212.653921,286.641704 C214.950837,285.381217 217.114009,283.952278 218.727665,281.631704 C215.532335,281.774017 213.715154,285.65713 210.24652,284.936852 L210.24652,284.936852 C210.24652,284.936852 210.24652,284.936852 210.24652,284.936852 C209.510925,285.21567 208.708458,285.384122 208.054273,285.787826 C196.502819,292.920904 184.46,298.970661 171.297797,302.574957 C167.483172,303.620522 163.680176,304.698035 159.871366,305.758122 C160.115595,306.045652 160.362731,306.336087 160.60696,306.623617 C167.468634,305.368939 174.190749,303.513061 181.529251,300.873009 Z"></path>
                    <path d="M218.724758,281.634609 C217.111101,283.955183 214.945022,285.384122 212.651013,286.644609 C211.6363,287.199339 209.976123,287.190626 210.458767,289.09007 C215.796916,287.01927 219.893568,283.046122 224.417621,279.770017 C231.517709,274.629322 235.564934,266.581374 241.92652,260.697165 C242.432423,260.229565 242.961586,259.700974 242.542907,259.027165 C242.106784,258.327217 241.449692,258.698974 240.789692,258.908087 C238.917269,259.500574 237.507137,260.83367 236.381938,262.207426 C228.953304,271.280609 220.108722,278.683791 210.243612,284.939757 L210.243612,284.939757 C213.712247,285.65713 215.529427,281.776922 218.724758,281.634609 Z"></path>
                    <path d="M483.175419,151.935148 C484.850132,151.874157 487.013304,151.673757 486.911542,149.335757 C486.83304,147.5612 486.146872,145.417791 483.980793,145.168017 C481.250661,144.854348 481.596652,147.38113 481.090749,149.039513 C480.608106,150.857635 481.346608,152.001948 483.175419,151.935148 Z"></path>
                    <path d="M160.560441,308.650852 C157.95533,309.394365 155.039119,308.540487 152.625903,310.143687 C152.509604,310.222104 152.390396,310.277287 152.274097,310.367322 L152.245022,310.527061 C162.208987,310.216296 171.574009,307.253861 180.909956,304.131687 C180.671542,303.887722 180.43022,303.643757 180.191806,303.396887 C173.647048,305.136591 167.076123,306.794974 160.560441,308.650852 Z"></path>
                    <path d="M102.117004,306.446452 C108.839119,308.16873 115.631013,309.440835 122.626432,308.311043 C122.265903,308.252957 121.908282,308.197774 121.547753,308.142591 C117.029515,307.7476 112.49674,307.462974 107.990132,306.928574 C102.672335,306.29833 102.343789,305.804591 103.038678,301.082122 C102.448458,301.843061 101.864053,302.598191 101.273833,303.35913 C101.445374,304.430835 100.506256,306.034035 102.117004,306.446452 Z"></path>
                    <path d="M128.028546,223.483757 C128.034361,223.864226 128.043084,224.241791 128.054714,224.619357 C129.528811,223.602835 128.93859,221.988017 129.104317,220.646209 C129.711982,215.807565 130.174273,210.9544 130.691806,206.104139 C130.278943,206.051861 129.866079,205.999583 129.450308,205.947304 C128.976388,211.790852 128.502467,217.637304 128.028546,223.483757 Z"></path>
                    <path d="M115.189075,272.317461 C113.514361,276.79887 111.839648,281.277374 110.164934,285.755878 C113.037533,281.721739 115.05533,277.371026 115.189075,272.317461 Z"></path>
                    <path d="M119.419471,311.616191 C114.907048,310.344087 110.176564,310.872678 105.617621,310.001374 C105.332687,310.245339 105.050661,310.489304 104.768634,310.73327 C109.813128,311.116643 114.863436,311.500017 119.910837,311.886296 L119.913744,311.743983 C119.753833,311.694609 119.585198,311.665565 119.419471,311.616191 Z"></path>
                    <path d="M86.8497797,326.980191 C84.8523348,329.158452 82.5903084,330.967861 79.3164758,330.520591 C80.7411454,332.335809 82.4652863,331.566157 83.9248458,330.796504 C86.4107489,329.483739 88.2715419,327.444887 89.5362996,324.906487 L89.5333921,324.906487 C88.1697797,325.005235 87.6493392,326.111791 86.8497797,326.980191 Z"></path>
                    <path d="M160.604053,306.626522 C160.359824,306.338991 160.112687,306.048557 159.868458,305.761026 C155.940441,306.228626 152.01533,306.693322 148.09022,307.160922 C148.087313,307.160922 148.081498,307.160922 148.075683,307.160922 C152.291542,307.910243 156.449251,307.332278 160.604053,306.626522 Z"></path>
                    <path d="M121.04185,311.340278 C120.666784,311.459357 120.294626,311.578435 119.919559,311.741078 C119.922467,311.73527 119.916652,311.8892 119.916652,311.8892 C123.931894,311.3548 128.005286,312.420696 132.003084,311.439026 C128.33674,310.90753 124.664581,310.17273 121.04185,311.340278 Z"></path>
                    <path d="M115.825815,271.510052 C116.924846,268.454678 118.396035,265.515478 118.759471,262.221948 C117.20978,265.140817 115.221057,267.917374 115.825815,271.510052 Z"></path>
                    <path d="M110.278326,285.65713 C110.278326,285.65713 110.278326,285.65713 110.278326,285.65713 C108.02793,288.085165 107.021938,290.995322 106.937621,294.262713 C108.440793,291.547148 109.443877,288.634087 110.278326,285.65713 Z"></path>
                    <path d="M151.750749,310.19887 C148.91304,309.272383 146.18,309.986852 143.461498,310.930765 C146.418414,311.369322 149.320088,310.660661 152.245022,310.527061 L152.274097,310.367322 C152.099648,310.297617 151.925198,310.254052 151.750749,310.19887 Z"></path>
                    <path d="M129.868987,308.165826 C127.095242,308.011896 124.324405,306.887913 121.547753,308.142591 C121.908282,308.200678 122.265903,308.255861 122.626432,308.311043 C125.039648,308.130974 127.479031,309.426313 129.868987,308.165826 Z"></path>
                    <path d="M127.636035,210.181843 C127.07489,216.522035 126.891718,222.905791 125.525198,229.158852 C125.272247,230.314783 125.464141,231.371965 126.220088,232.411722 C127.464493,229.420243 125.917709,226.103478 128.028546,223.480852 C128.502467,217.6344 128.976388,211.790852 129.450308,205.941496 C128.077974,207.030626 127.784317,208.526365 127.636035,210.181843 Z"></path>
                    <path d="M148.058238,194.509983 C146.389339,194.617443 145.237974,195.633965 144.13022,197.524696 C145.868899,197.06 147.229604,196.77247 148.535066,196.319391 C149.602115,195.950539 151.294273,195.413235 150.831982,194.193409 C150.049868,192.13713 149.035154,194.448991 148.058238,194.509983 Z"></path>
                    <path d="M113.150925,268.945513 C112.269956,272.070591 111.388987,275.192765 110.50511,278.317843 C113.252687,275.718452 113.997004,272.552713 113.150925,268.945513 Z"></path>
                    <path d="M91.8419383,28.9389217 C89.9666079,30.4143304 88.6669604,31.4424696 87.3614978,32.4677043 C89.0449339,31.8984522 90.4521586,30.9952 91.8419383,28.9389217 Z"></path>
                    <path d="M83.1950661,319.129739 C82.8112775,316.617478 84.3377093,313.986139 82.9304846,311.459357 C81.6570044,311.915339 80.4823789,312.458452 79.8572687,313.80607 C78.7727753,316.149878 81.4069604,325.333426 83.6282819,326.457409 C84.6720705,326.988904 85.3640529,326.254104 85.7914537,325.310191 C81.7122467,324.630574 83.5323348,321.325426 83.1950661,319.129739 Z"></path>
                    <path d="M91.2284581,271.155722 C90.9551542,271.425826 90.5510132,271.646557 90.4288987,271.971843 C87.1754185,280.623896 86.0124229,289.769687 84.1254626,298.741217 C83.9713656,299.470209 84.3609692,300.001704 85.0325991,300.315374 C86.3089868,296.307374 86.3555066,292.084452 87.1318062,287.980609 C88.2075771,282.285183 90.5074009,276.915043 91.2284581,271.155722 Z"></path>
                    <path d="M84.5179736,323.924817 C84.0818502,317.938957 83.7707489,311.953096 84.674978,305.978852 C84.674978,305.978852 84.674978,305.978852 84.674978,305.978852 C82.2210573,307.210296 83.7067841,309.696417 82.9275771,311.459357 C84.3348018,313.986139 82.80837,316.617478 83.1921586,319.129739 C83.5294273,321.322522 81.7093392,324.630574 85.7885463,325.310191 C85.7943612,324.950052 85.8030837,324.592817 85.8118062,324.232678 C85.3466079,324.244296 84.5703084,324.624765 84.5179736,323.924817 Z"></path>
                </g>
            </g>
        </g>
    </g>
</svg>